# xmcd
# 
# Track frame offsets:
#   300
#   14048
#   33814
#   53744
# 
# Disc length: 965 seconds
# 
# Revision: 1
# Processed by: cddbd v1.5.2PL0 Copyright (c) Steve Scherf et al.
# Submitted via: Synapstar 1.0 
# 
DISCID=2b03c104
DTITLE=Various Artist - Newest Karaoke 1-5-2010
DYEAR=1900
DGENRE=Country
TTITLE0=Easton Corbin - A Little More Country Than That
TTITLE1=Brad Paisley - Then
TTITLE2=Brad Paisley - Then
TTITLE3=Lady Antebellum - Need You Now
EXTD=
EXTT0=
EXTT1=
EXTT2=
EXTT3=
PLAYORDER=
